<?xml version="1.0" standalone="no"?>
<!DOCTYPE svg PUBLIC "-//W3C//DTD SVG 20010904//EN"
 "http://www.w3.org/TR/2001/REC-SVG-20010904/DTD/svg10.dtd">
<svg version="1.0" xmlns="http://www.w3.org/2000/svg"
 width="512.000000pt" height="512.000000pt" viewBox="0 0 512.000000 512.000000"
 preserveAspectRatio="xMidYMid meet">
<metadata>
Created by potrace 1.11, written by Peter Selinger 2001-2013
</metadata>
<g transform="translate(0.000000,512.000000) scale(0.100000,-0.100000)"
fill="#000000" stroke="none">
<path d="M0 2560 l0 -2560 2560 0 2560 0 0 2560 0 2560 -2560 0 -2560 0 0
-2560z m2690 1390 c388 -48 686 -258 791 -557 52 -149 52 -141 56 -1020 4
-761 6 -822 21 -827 9 -2 44 -7 77 -11 116 -13 105 5 105 -176 l0 -159 -319 0
c-296 0 -320 1 -325 18 -13 45 -37 193 -43 269 l-6 83 -76 -77 c-255 -259
-532 -366 -864 -335 -335 31 -551 164 -662 405 -52 113 -70 210 -70 372 1 155
15 225 67 330 113 228 359 380 728 451 66 13 171 17 478 21 l392 5 0 202 c0
149 -4 217 -15 261 -35 135 -124 244 -248 305 -212 104 -597 71 -796 -68 -62
-43 -61 -42 -91 -209 l-22 -123 -189 0 -189 0 0 265 0 264 77 52 c192 130 469
229 723 258 108 12 302 13 400 1z"/>
<path d="M2355 2399 c-141 -20 -286 -91 -372 -182 -116 -122 -151 -287 -93
-439 39 -103 128 -172 258 -199 77 -16 318 -6 397 16 177 50 355 167 452 299
l43 58 0 229 0 229 -312 -1 c-172 -1 -340 -5 -373 -10z"/>
</g>
</svg>
